# xmcd
#
# Track frame offsets: 
#        150
#        9693
#        21666
#        34693
#        50447
#        65001
#        78004
#        90694
#        99795
#        115032
#
# Disc length: 1702 seconds
#
# Revision: 0
# Processed by: cddbd v1.5.1PL0 Copyright (c) Steve Scherf et al.
# Submitted via: ExactAudioCopy v0.95a5
#
DISCID=7306a40a
DTITLE=Juan Torres - COLECCION DE ORO
DYEAR=2003
DGENRE=Musica Norteña
TTITLE0=La Cacahuata
TTITLE1=Libro Abierto
TTITLE2=Ingratos Ojos Mios
TTITLE3=Adios Penal  de la Loma
TTITLE4=La Banda del Carro Rojo
TTITLE5=El Circo
TTITLE6=Dos Palomas al Volar
TTITLE7=Mi Piquito de Oro
TTITLE8=El Ausente
TTITLE9=Mi Tesoro
EXTD=
EXTT0=
EXTT1=
EXTT2=
EXTT3=
EXTT4=
EXTT5=
EXTT6=
EXTT7=
EXTT8=
EXTT9=
PLAYORDER=
